{"title":"Thirst.2009.BRRIP.H264-ZEKTORM","uid":5321064,"size":1677729607,"categoryP":"video","categoryS":"movies","magnet":"?xt=urn:btih:7411879fb008261b2865bfd005e11d1941079808&amp;dn=Thirst.2009.BRRIP.H264-ZEKTORM&amp;tr=udp%3A%2F%2Ftracker.openbittorrent.com%3A80&amp;tr=udp%3A%2F%2Fopen.demonii.com%3A1337&amp;tr=udp%3A%2F%2Ftracker.coppersurfer.tk%3A6969&amp;tr=udp%3A%2F%2Fexodus.desync.com%3A6969","seeders":0,"leechers":1,"uploader":"blowley","files":4,"time":1264864484,"description":"Title                            : Bakjwi\nAlso Known As                    : Thirst\nYear                             : 2009\nGenre                            : Drama | Horror | Romance\niMDB URL                         : http://www.imdb.com/title/tt0762073/\nAwards                           : 3 wins &amp; 2 nominations\n\nComplete name                    : Thirst.2009.BRRIP.H264-ZEKTORM.mp4\nFormat                           : MPEG-4\nFormat profile                   : Base Media\nCodec ID                         : isom\nFile size                        : 1.56 GiB\nDuration                         : 2h 13mn\nOverall bit rate                 : 1671 Kbps\nSubtitles                        : English (Format: srt)\n\nVideo\nID                               : 1\nFormat                           : AVC\nFormat/Info                      : Advanced Video Codec\nFormat profile                   : &lt;a class=&quot;__cf_email__&quot; href=&quot;/cdn-cgi/l/email-protection&quot; data-cfemail=&quot;3e765759567e720d100e&quot;&gt;[email&amp;#160;protected]&lt;/a&gt;&lt;script cf-hash='f9e31' type=&quot;text/javascript&quot;&gt;\n/* &lt;![CDATA[ */!function(){try{var t=&quot;currentScript&quot;in document?document.currentScript:function(){for(var t=document.getElementsByTagName(&quot;script&quot;),e=t.length;e--;)if(t[e].getAttribute(&quot;cf-hash&quot;))return t[e]}();if(t&amp;&amp;t.previousSibling){var e,r,n,i,c=t.previousSibling,a=c.getAttribute(&quot;data-cfemail&quot;);if(a){for(e=&quot;&quot;,r=parseInt(a.substr(0,2),16),n=2;a.length-n;n+=2)i=parseInt(a.substr(n,2),16)^r,e+=String.fromCharCode(i);e=document.createTextNode(e),c.parentNode.replaceChild(e,c)}}}catch(u){}}();/* ]]&gt; */&lt;/script&gt;\nFormat settings, CABAC           : Yes\nCodec ID                         : avc1\nCodec ID/Info                    : Advanced Video Coding\nDuration                         : 2h 13mn\nBit rate mode                    : Variable\nBit rate                         : 1416 Kbps\nWidth                            : 1280 pixels\nHeight                           : 544 pixels\nDisplay aspect ratio             : 2.35\nFrame rate mode                  : Constant\nFrame rate                       : 23.976 fps\nResolution                       : 24 bits\nColorimetry                      : 4:2:0\nScan type                        : Progressive\nBits/(Pixel*Frame)               : 0.085\nStream size                      : 1.32 GiB (85%)\nTitle                            : Video\nWriting library                  : x264\n\nAudio #1\nID                               : 2\nFormat                           : AAC\nFormat/Info                      : Advanced Audio Codec\nFormat version                   : Version 4\nFormat profile                   : LC\nFormat settings, SBR             : Yes\nFormat settings, PS              : No\nCodec ID                         : 40\nDuration                         : 2h 13mn\nBit rate mode                    : Variable\nBit rate                         : 175 Kbps\nMaximum bit rate                 : 249 Kbps\nChannel(s)                       : 6 channels\nChannel positions                : Front: L C R, Rear: L R, LFE\nSampling rate                    : 48.0 KHz\nResolution                       : 16 bits\nStream size                      : 167 MiB (10%)\nTitle                            : Korean\nLanguage                         : Korean\n\nAudio #2\nID                               : 3\nFormat                           : AAC\nFormat/Info                      : Advanced Audio Codec\nFormat version                   : Version 4\nFormat profile                   : LC\nFormat settings, SBR             : Yes\nFormat settings, PS              : No\nCodec ID                         : 40\nDuration                         : 2h 13mn\nBit rate mode                    : Variable\nBit rate                         : 76.7 Kbps\nMaximum bit rate                 : 101 Kbps\nChannel(s)                       : 2 channels\nChannel positions                : L R\nSampling rate                    : 48.0 KHz\nResolution                       : 16 bits\nStream size                      : 73.4 MiB (5%)\nTitle                            : Korean\nLanguage                         : Korean\n","torrent":{"xt":"urn:btih:7411879fb008261b2865bfd005e11d1941079808","amp;dn":"Thirst.2009.BRRIP.H264-ZEKTORM","amp;tr":["udp%3A%2F%2Ftracker.openbittorrent.com%3A80","udp%3A%2F%2Fopen.demonii.com%3A1337","udp%3A%2F%2Ftracker.coppersurfer.tk%3A6969","udp%3A%2F%2Fexodus.desync.com%3A6969"],"infoHash":"7411879fb008261b2865bfd005e11d1941079808","infoHashBuffer":{"type":"Buffer","data":[116,17,135,159,176,8,38,27,40,101,191,208,5,225,29,25,65,7,152,8]},"announce":[],"urlList":[]}}